<?xml version="1.0" encoding="utf-8"?>
<!-- Generator: Adobe Illustrator 16.0.4, SVG Export Plug-In . SVG Version: 6.00 Build 0)  -->
<!DOCTYPE svg PUBLIC "-//W3C//DTD SVG 1.1//EN" "http://www.w3.org/Graphics/SVG/1.1/DTD/svg11.dtd">
<svg version="1.1" id="Layer_1" xmlns="http://www.w3.org/2000/svg" xmlns:xlink="http://www.w3.org/1999/xlink" x="0px" y="0px"
	 width="200px" height="110px" viewBox="0 0 200 110" enable-background="new 0 0 200 110" xml:space="preserve">
<g>
	<polygon fill="#FFFFFF" points="15.744,46.964 8.321,46.964 8.321,76.596 14.718,76.596 14.718,59.818 22.381,76.715 25.46,76.715 
		33.727,59.455 33.727,76.596 40.366,76.596 40.366,46.964 33.003,46.964 24.192,66.697 	"/>
	<path fill="#FFFFFF" d="M48.006,61.809c0,9.232,6.577,15.389,16.776,15.389c10.138,0,16.716-6.156,16.716-15.389
		c0-1.533-0.187-2.964-0.515-4.304c4.664,0.005,12.057,0.01,13.257-0.005c1.775-0.021,2.132,1.086,2.097,2.979
		c-0.033,1.895,0,23.59,0,23.59h7.242c0,0,0-19.24,0-19.783c0-2.617,0.461-2.99,2.441-2.99c1.249,0,6.471,0,6.471,0
		s0.638-1.63,0.851-3.811c3.867,0,4.709,0,5.285,0c0,0.391,0.026,0.83-0.025,0.959c-0.024,0.84,1.995,0.75,2.71,1.105
		c0.592,0.295,1.059,0.939,1.115,1.141c1.797,6.34,7.791,10.473,16.116,10.473c4.742,0,8.69-1.361,11.566-3.74
		c3.21,0.013,9.209,0.021,10.618-0.08c1.432-0.152,0.758-2.574,1.284-2.574c1.755,0,2.096-0.029,4.825,0.016l0.034,11.812h7.182
		v-11.83c0,0,2.895-0.166,3.668,1.766c0.929,2.322,4.115,10.064,4.115,10.064h8.208l-6.999-12.432
		c3.498-0.785,5.854-3.381,5.854-8.328c0-6.819-4.347-8.872-9.476-8.872h-12.552v12.729c0,0-3.48,0.016-4.684,0.016
		c-0.499,0.092,0.188-2.049-0.695-2.416c-0.71-0.297-4.029-0.24-6.291-0.26c0.028-0.416,0.057-0.831,0.057-1.26
		c0-9.413-6.396-15.389-16.715-15.389c-7.749,0-13.346,3.465-15.685,9.21c-0.362,0.889-1.332,1.025-1.736,1.119
		c-0.891,0.203-2.571-0.153-2.418,0.406c0.025,0.255-0.012,1.257-0.02,1.495c-0.746-0.007-3.492-0.009-5.671-0.01
		c-0.249-1.256-0.522-2.176-0.522-2.176H76.822c-2.881-2.568-6.986-4.009-12.04-4.009C54.463,46.421,47.945,52.396,48.006,61.809z
		 M174.053,52.275h3.56c2.896,0,3.923,1.75,3.923,3.681c0,1.87-1.146,3.681-3.923,3.681h-3.56V52.275z M130.722,59.338
		c0.764-0.275,2.025-0.307,2.448-0.471c0.226-0.088,0.401-1.25,0.519-1.463c0.213,0,1.375-0.047,1.682-0.023
		c0.048,0.188-0.053,0.77,0.059,1.055c0.106,0.271,3.276,0.141,3.66,0.021c0.09-0.127,0.04-0.812,0.035-1.006
		c0,0,1.282,0.166,1.282-0.234c-0.024-0.732,0-3.622,0-4.431c0-0.259-1.103-0.195-1.205-0.207c-0.014-0.369,0.071-1.303-0.274-1.329
		c-0.269-0.021-3.267-0.048-3.42,0.032c-0.158,0.082-0.028,1.364-0.164,1.388c-0.133,0.024-1.713,0.024-1.808,0.024
		c-0.06-0.176-0.183-1.459-0.38-1.725c-0.184-0.246-1.395-0.37-2.079-0.37c-0.297,0,0.095-0.777,0.35-1.095
		c1.786-2.214,4.571-3.507,7.117-3.507c4.766,0,9.052,4.526,9.052,9.775c0,5.25-4.286,9.777-9.052,9.777
		c-2.983,0-6.931-1.734-8.269-4.609C129.936,60.213,130.132,59.549,130.722,59.338z M64.782,52.034c4.767,0,9.052,4.526,9.052,9.774
		c0,5.25-4.285,9.777-9.052,9.777c-4.828,0-9.112-4.527-9.112-9.777C55.67,56.561,59.954,52.034,64.782,52.034z"/>
	<path fill="#FFFFFF" d="M16.478,32.728c-2.092,0-4.25-0.798-6.641-2.458l-2.589,5.246c2.723,1.66,4.714,2.822,9.495,2.822
		c5.877,0,8.898-2.855,9.031-6.739c0.101-2.623-2.158-5.112-4.847-6.144c-1.991-0.764-5.312-2.289-5.312-3.353
		c0-0.73,0.664-1.361,1.893-1.361c2.49,0,4.515,0.797,6.441,1.958l2.523-5.312c-2.491-1.262-4.516-2.091-8.865-2.091
		c-4.017,0-9.329,1.759-9.329,6.673c0,2.523,1.56,4.118,4.349,5.611c1.162,0.631,6.042,1.991,6.042,3.818
		C18.669,32.295,17.54,32.728,16.478,32.728z"/>
	<polygon fill="#FFFFFF" points="46.213,37.74 53.053,37.74 53.053,20.675 59.294,20.675 59.294,15.827 39.972,15.827 
		39.972,20.675 46.213,20.675 	"/>
	<path fill="#FFFFFF" d="M79.354,33.358h5.943l1.495,4.382h7.138l-8.566-21.913h-5.843L70.955,37.74h6.806L79.354,33.358z
		 M82.476,23.862l1.593,5.776h-3.486L82.476,23.862z"/>
	<polygon fill="#FFFFFF" points="108.628,33.194 115.468,33.194 115.468,16.129 121.709,16.129 121.709,11.281 102.386,11.281 
		102.386,16.129 108.628,16.129 	"/>
	<rect x="135.644" y="3.904" fill="#FFFFFF" width="6.839" height="21.913"/>
	<path fill="#FFFFFF" d="M168.381,29.453c3.453,0,5.013-0.598,7.238-1.595l-1.495-4.914c-1.858,1.03-2.987,1.13-4.848,1.13
		c-3.553,0-5.91-3.022-5.91-6.343c0-3.385,2.259-5.976,5.246-5.976c2.458,0,3.188,0.333,4.948,1.827l2.488-4.814
		c-2.456-1.594-4.448-2.391-7.668-2.391c-9.265,0-12.284,6.275-12.284,11.421S158.918,29.453,168.381,29.453z"/>
	<path fill="#FFFFFF" d="M90.893,94.996H89.83v2.195h1.062c0.828,0,1.17-0.539,1.17-1.098
		C92.062,95.518,91.756,94.996,90.893,94.996z"/>
	<path fill="#FFFFFF" d="M71.92,94.924c-1.44,0-2.719,1.35-2.719,2.916s1.278,2.918,2.719,2.918c1.423,0,2.701-1.352,2.701-2.918
		S73.343,94.924,71.92,94.924z"/>
	<path fill="#FFFFFF" d="M108.567,95.104h-1.134v5.455h1.134c1.783,0,2.972-1.08,2.972-2.736
		C111.539,96.453,110.765,95.104,108.567,95.104z"/>
	<path fill="#FFFFFF" d="M18.64,94.996h-1.062v2.195h1.062c0.828,0,1.17-0.539,1.17-1.098C19.811,95.518,19.504,94.996,18.64,94.996
		z"/>
	<path fill="#FFFFFF" d="M7.98,88.088v18.346h184.407V88.088H7.98z M19.9,102.252l-1.873-3.529h-0.45v3.529h-2.143V93.41h3.745
		c1.53,0,2.827,0.613,2.827,2.648c0,1.477-0.702,2.25-1.746,2.484l2.088,3.709H19.9z M39.161,102.252h-6.086V93.41h5.888v1.639
		h-3.745v1.873h3.079v1.639h-3.079v2.053h3.943V102.252z M54.227,102.432c-3.061,0-4.97-1.873-4.97-4.645
		c0-2.701,1.963-4.539,4.97-4.539c1.368,0,2.179,0.379,2.989,0.83l-0.972,1.656c-0.396-0.271-0.918-0.703-1.927-0.703
		c-1.477,0-2.755,0.99-2.755,2.666c0,1.764,1.314,2.951,3.007,2.951c1.026,0,1.549-0.324,1.999-0.521l0.774,1.674
		C56.225,102.287,55.379,102.432,54.227,102.432z M71.92,102.432c-3.042,0-5.005-1.836-5.005-4.592
		c-0.018-2.809,1.927-4.592,5.005-4.592c3.079,0,4.988,1.783,4.988,4.592C76.908,100.596,74.945,102.432,71.92,102.432z
		 M92.152,102.252l-1.873-3.529H89.83v3.529h-2.143V93.41h3.745c1.531,0,2.827,0.613,2.827,2.648c0,1.477-0.702,2.25-1.746,2.484
		l2.089,3.709H92.152z M108.748,102.252h-3.457V93.41h3.476c3.33,0,5.041,1.729,5.041,4.395
		C113.808,100.451,112.079,102.252,108.748,102.252z M126.909,102.252h-2.16V93.41h2.16V102.252z M146.981,102.27h-2.125
		l-3.853-5.725v5.707h-1.981V93.41h2.305l3.674,5.762V93.41h1.98V102.27z M164.081,100.721c0.36,0,0.612-0.072,0.972-0.162v-2.43
		h2.143v3.781c-1.17,0.27-2.143,0.521-3.402,0.521c-2.899,0-5.222-1.549-5.222-4.609c0-2.898,2.196-4.555,5.186-4.555
		c1.368,0,2.232,0.18,3.547,0.811l-0.882,1.637c-0.648-0.377-1.531-0.738-2.449-0.738c-1.765,0-3.187,0.938-3.187,2.756
		C160.786,99.533,162.353,100.721,164.081,100.721z M182.025,97.102c1.297,0.686,2.413,1.062,2.413,2.738
		c0,1.691-1.278,2.592-3.349,2.592c-1.495,0-2.431-0.396-3.457-0.936l0.936-1.693c0.865,0.486,1.657,0.793,2.539,0.793
		c0.54,0,1.099-0.162,1.099-0.666c0-0.703-1.711-1.369-2.161-1.604c-1.566-0.863-2.088-1.404-2.088-2.502
		c0-1.838,1.53-2.557,3.492-2.557c1.297,0,2.053,0.234,3.151,0.719l-0.918,1.711c-0.919-0.486-1.44-0.611-2.287-0.611
		c-0.558,0-1.099,0.18-1.099,0.611C180.297,96.273,181.126,96.635,182.025,97.102z"/>
</g>
</svg>
